<mxfile host="www.draw.io" modified="2020-01-13T23:29:55.476Z" agent="Mozilla/5.0 (Windows NT 10.0; Win64; x64) AppleWebKit/537.36 (KHTML, like Gecko) Chrome/79.0.3945.117 Safari/537.36" etag="CD5S2ZZPkwl2nI4ijFSo" version="12.5.1" type="github">
  <diagram id="Jt5n9XuBfwowsxlS6-2N" name="Page-1">
    <mxGraphModel dx="2103" dy="1876" grid="1" gridSize="10" guides="1" tooltips="1" connect="1" arrows="1" fold="1" page="1" pageScale="1" pageWidth="850" pageHeight="1100" math="0" shadow="0">
      <root>
        <mxCell id="0"/>
        <mxCell id="1" parent="0"/>
        <mxCell id="X_jthvCfrlDwOe1ctVov-2" value="" style="shape=image;verticalLabelPosition=bottom;labelBackgroundColor=#ffffff;verticalAlign=top;aspect=fixed;imageAspect=0;image=data:image/png,iVBORw0KGgoAAAANSUhEUgAAA0EAAAL1CAYAAAAB0e8OAAAgAElEQVR4nO3dCaxc5Xnw8ffi3RhvOHjDxgaMMWBjVywhxiYs+ZLSZq9aNZHSJv2+7ruqpovUXVWjtureNEmrlKhSpaZJmqYlQYRQbBNCIMHYBAy2Md7AgDFewLs93zyn91xdvICxx3dm7vP7SaMZz13mvYvfe/5zznmnZ8WKFY3FixcXAACADM5p9wAAAAAGkggCAABSEUEAAEAqIggAAEhFBAEAAKmIIAAAIBURBAAApCKCAACAVEQQAACQiggCAABSEUEAAEAqIggAAEhFBAEAAKmIIAAAIBURBAAApCKCAACAVEQQAACQiggCAABSEUEAAEAqIggAAEhlaLsHALTevv37y86dO6vLrl27yu7m5ZVXXimHDh8uhw8dKod6L41Go91DBVqsp6enDBs2rLoMbV6GNy+jzz23jBs3rrpMGD++jG9eRo4c2e6hArSNCIJBIIJmy9at5blnny3btm0r27dvP6WPi40lYHCJJzcOHjxYXfq8+OJx73f+pEll6pQpZfr06WXatGlVNAFkIYKgS8WGzrr168u6tWvL5s2bX/O2IUOGlAkTJ5ZxY8eWsePGlbHN6/POO68MGzq0ema4fpYYGJzqvb3Vnt/Dh8uePXvK7t27q73Ccb1jx47y0vbt1eWxxx6rPmbGjBnl0jlzyqWXXOIJEmDQ61mxYkVj8eLF7R4HcIpiT8+TTz5Z1jcD6HBz46Y2ZcqU6jK59xrg9cRc8nzzsq33UosnSC6++OIyd+5ccwkwaIkg6BJbt24tq1evLps2beq7LzZQZs2eXWY3L8OHD2/j6IBuFofObdiwoTzTvPQPopkzZ5b58+dXh8wBDCYiCDpcxM/KlSur6zB06NAy74oryiWXXFKd5AzQSrGYSuxpfuLxx/v2Nl944YXl6quvFkPAoCGCoEPt37+/PPTQQ+WJJ56o/j1ixIhyRTN+IoCczwOcbXFOUYTQ483LgQMHqvtiDrrmmmusLAd0PREEHSg2OiKA6g2PhQsXlvkLFpRzzvHSXsDAOnr0aFm9alW1RzrEEzLXXnttFUQA3crqcNBhli1bVtasWVPdnnnRRWXRokXVa3oAtEM8+XL1woXlolmzyiOPPFI2bdxYVqxYUS3Fv3Tp0nYPD+C0iCDoEPFipvfee2957rnnqvN+3rZ4cbXgAUAniCdjbr755moBhW/ef3/1ZE2cPxT3jRkzpt3DA3hTRBB0gAifb3zjG+XVV18tEyZMKDcuWVImTpzY7mEBHCeenIlFWVYsX17NXV/+8pfLLbfcUqZOndruoQGcMicYQJvFa/585StfqQJoxsyZ5ftvv10AAR0t5qiYq2LOirkr5rCYywC6hQiCNorFD+67777q9hVXXlk9m2rlN6AbxFwVc1bMXSHmspjTALqBCII2ueeee6qTjMP1119frbYE0G1i7oo5LMScFnMbQKcTQdAG8WxpvBhhT09Pue2228rl8+a1e0gApy3msJjLYk6Luc0eIaDTiSAYYHHcfL0H6NZbby3TL7ywzSMCOHMxl8WcFmKOc44Q0MlEEAygWEmpPgcoDh8RQMBgEnNafWhczHUx5wF0IhEEA6R+HaAQJxI7BA4YjGJuqxdLiKX/Y+4D6DQiCAZIBFBsDMSSshZBAAazmOPq5bPrJ38AOokIggGwbNmy6rCQeCHUJUuWtHs4AGddzHUx58XcF3MgQCcRQXCWPf7442XNmjVl6NCh5cbmRoHXAQIyiLku5ryY+2IOjLkQoFOIIDiL9u/f37dU7NsWL65eZR0gi5jzYu4LMRfGnAjQCUQQnEXxR//AgQNl5kUXldmzZ7d7OAADLua+mANjLnz44YfbPRyAigiCs2Tr1q3liSeeqG4vWrSozaMhq6NHj5b169ZVl7gN7VDPgXFIXMyNAO02tN0DgMHq0Ucfra4XLlxYxo8f3+bRkNELL7xQvviFL5SdO3dW/47fww988IPlggsuaPPIyCZ+92IuXLlyZTU3Tp8+vd1DApKzJwjOgnimc8uWLWXEiBFl/oIF7R4OSX397rv7AijE7bgP2iHmwpgTY260NwhoNxEEZ8Hq1aur6yuuuKKcc47/ZrRHLE18rGdPcB8MhJgLY04M9RwJ0C62zqDFtm3bVjZt2lQtCzuv9w8+tMP5559/3H2TTnAfDJSYE2NujDky5kqAdhFB0GJPPvlkdR1/7L0mEO209KabTuk+GCgxJ9ZPDtVzJUA7WBgBWqjRaJSnn366un3JJZe0eTRkd/HFF5f/+//+X1m3dm3170vnzCmTJk1q86jILubG1atWVXPl0qVLS09PT7uHBCQkgqCF1q1fXw4dOlSmTJlSxo0b1+7hQBU9wodOEnNjzJFxONy6devKnGacAww0h8NBC9XPuM/ywqgAJ1XPkfHEEUA7iCBokdgDtHnz5ur2bBEEcFL1HLl506Zq7gQYaCIIWmRL7+texGEew4cPb/NoADpXzJExV4Znn322zaMBMhJB0CLP9f4hr/+wA3By9VzphVOBdrAwArTIc72veTFZBA1qsQLgtueeq37eY8aMqTbkxo4d2+5hQdep58rnvF4Q0AYiCFpg//795aXt28uQIUPsCRrEVj36aLn77ruPO4dh7ty55bZ3vKOcd955bRoZdJ+YK2POjLlzX3MOHTVyZLuHBCTicDhogZd37qyuJ06c2OaRcLbc9bWvlTvvvPOEJ3HHiz5+5tOfLi++8EIbRgbda0LvnLmrdw4FGCj2BEEL7Oz9A+6wqMHpqaeeKo888sjrvs/BgwervUQf+vCHz/jxNm3aVF54/vkz/jxn0wWTJ5eZM2e2exh0uXHNOXP7iy9WTyTZiw4MJBEELbBr167qeqwXSB2U7l+x4pTeL+Ilgumyyy477cd6+KGHyte//vXT/viBdOOSJeXGG29s9zDoYvWcWc+hAAPF4XDQAn0RZE/QoBMLITz/JvbKxKIJpyv2/nRLAIUVy5fbeOWM1HPmbr9HwAATQdACr77ySnXtxPjBZ9ubXLnqzb5/f90YFLH3C05XPWe++uqrbR4JkI0IghY4dPhwdT1sqCNMB5s3e57CmZzX0I3n2IxzCChnoJ4zT7TgCMDZJIKgBQ73/gEfOmxYm0dCq/X09JTJkyef8vtPmTr1tB9rxMiR5dprrz3tjx9oMdZuDDc6Rz1niiBgoHnaGlqg/gM+TAQNSotvvLF88QtfeMP3iyA4k0URwq233VZ9nuc7fLnty+bMqVaIgzMxTAQBbSKCoAVE0OAWYbNo0aLXXSZ7+PDh1QumtsKc5uPNOcOYgm4ggoB2EUHQArGCWBw2xeD1zne9q0ydOrV6LaBjN9jmzp1bBZCFMeDNi7kz5lCAgSSCAE7RgquvLvMXLKiWwX5u27YyZsyYaiEES6MDQHcRQQBvQjxrPXXatOoCAHQnq8MBAACpiCAAACAVEQQAAKQiggAAgFREEAAAkIoIAgAAUhFBAABAKiIIAABIRQQBAACpiCAAACAVEQQAAKQiggAAgFREEAAAkIoIAgAAUhFBAABAKiIIAABIRQQBAACpiCAAACAVEQQAAKQiggAAgFREEAAAkIoIAgAAUhFBAABAKiIIAABIRQQBAACpiCAAACAVEQQAAKQiggAAgFREEAAAkIoIAgAAUhFBAABAKiIIAABIRQQBAACpDG33AIDXWrJkSbuHAHBKli9f3u4hAJwWEQQd6KFvf7vdQwB4Xdded127hwBw2hwOBwAApCKCAACAVEQQAACQinOCAGAQGDp0aBk2bFhLPte+ffta8nkAOpUIAmiR8ePHl7e//e1l1qxZ1e1nnnmmrFy5srrA2fSZz3ymfPSjHy0HDhxoyedbu3Zt+a3f+q1y5513tuTzAXQaEQS8xvDhw8vBgwdP62PjmejDhw+f0vs2Go3yrW99q9xwww2vuf+BBx4o559/frnsssve1GPH0uJf+tKXyqRJk07p/f/mb/6mXHPNNcc9/ulYuHBh+d3f/d0qgCJ+jhUR9Fd/9Vfln//5n9/U533qqafKE088Ud773vf23Rfft1pPT89xHxPfv7e+9a3V7V/6pV8qf/3Xf13d3r59e/V9PdHHxceE/t+LL3/5y+U973lPWbp06WuWQY7v87Jly8r73ve+6n14rfi9+tEf/dHX/B6e7GcSP985c+ZUt+vvc3z8z//8z7/mvl/8xV+s7jvZ/4nFixdXl9/7vd8r5557bku+jvgdibGKIGDQWrFiRQM4M5/61Kcan/70pxv7Dxw448u1110XW7nHXYYNG9b45Cc/2dizZ09jx44djU984hOvefvo0aMb//iP/9h45ZVXGs0N3sYf/dEfvebtzY3zxh133NHYu3dv44UXXmg0N9pf8/aPfvSjjfXr1zcOHTrUaG7kNq699tq+t02fPr3x7//+7439+/c3tm7d2vj4xz/+mo/9uZ/7ucbGjRsbzQBq3HXXXY0rr7zyhF9D/0uMMZzo/ubG4Rt+/LGX5sZ59bGn+v7Njc1Gc+P0TT/OsZdf/uVfbrz88svVpbkR2mgGUfW9jrfNmjWrevuGDRuqr/Wzn/3sKX3OZvRU7x/fh2Zo9N3f//aJxt/cWO77HvS/HR9Xv2//26/3s4j3i/v7P2b/+2OMZ/q9G2yX+ne3/+/hyX4m8fOrf8/7366v433rn9Mb/V5/4AMfaHz+859vrFq1qmVzWjPaGmvXrm00w/mkjxtzVSvmvJg7Yw4FGEgWRoAuEXsSfvqnf7qMGTOmTJgwofz6r/96+YM/+IO+t//t3/5t+Ymf+InqmeB4xv+3f/u3q8NZan/3d39XPvKRj5RRo0aVt7zlLdWzxr/6q79ave0d73hH+cM//MPq7SNHjiz/8i//Uj73uc/1fWxzI6V63Pi88Sz3D/7gD5af/MmfrN72Qz/0Q+Vnf/Znq2eq47G/+tWvln/6p386pa8p9gTFM9+1uH3//fef0fdpoF199dXVnp7Zs2dX39MQe0l+/Md/vDos7i//8i+rt/3+7/9+36FybyT2sMQz8bEXqL/+e4TicKV6z07t1ltvLf/6r/9a3a73NsSem3nz5lW/L+HP/uzP+vY+hPp7fuzPIsT9sYehv/hc8dgcL/b+xP/B/k72M4m9kPF/NvzCL/zCa34m/cXvQv3xAy0O54w9nACDkQiCLvGhD33ouPt++Id/uO/2hz/84ePeHoESzjnnnBN+/Ac/+MHq+l3vele1gRYbvUeOHKmi58UXXyw333xzmTZtWrXBFu/z6quvVodCxYZ0vUF+++23l7/4i78oX/nKV6rzEWKjP2Io4uD1xAZ8bNy9853v7Lsvbt9zzz2veb84ZKjRaFSXuF2LjcP6/vpwrmPfFhub8bbXe9/6MeKQoxAfE4eOhYiC+uO+8Y1vnPDriPMw3v/+91dxE4fjPfLII+Wzn/1sdbn33nvLhg0bqiiKQIoYig3LVogYveuuu6rbMb4Y6wUXXPCaQNmxY0dZtGhRmThxYt8hbXHdP57iex4/z2N/Fv0/R/29iesIs2Pji5M72c8kvofxu1J76aWXqt+9+P7GzzOe9IjDEyM6I5IG2qZNm8q//du/VYfHAgxGIgi6xInO0+l/3+u9/ejRo1XcnOztcX3suTz1uUG7d+8+bsWp+Hd9AvbrfewbqZ8ZD7EBGBuC/UWwxH2xVyQucTuCJjbGYw9FfX//c1kiBmLDMe6vN/z7v288415v1L+RiII4LyM+7pZbbjnp++3cubPvnKBf+ZVfqTZyI3gijuJtEYmtFJH2wgsv9G0cx/hOZ0M5vud1IMXPIr43cV9/sbci9maECK8IJs6eeHKh/l2N3//YsxQ/75MFPACnRwRBl4jVn44Vextqn/rUp457+x133NF3+x/+4R+Oe3t9yNsXvvCF6nC42HMUe3Bigz6iKfYMvfLKK9XJ0X//939fLr/88urQt3h7fYjO5z//+fLHf/zH5eMf/3i59NJLyyc+8Yny9NNPH3co18nE3owIl1/7tV/rO2SrVu8tqj388MPVM+uxUX6iw+bqw/WOPYG8/+eIZ+VPdujRseLzxN6d2AD9mZ/5mdd93wieiJ9Y/CBiKA6Hi8Pk4r7Yo9YqMZZ4rP6HxvXX/2uLwKn3NtRx0z8243se37N6b1d9X38RRxGVtf6LJHBqTvYzid+NWvwc+n9v61CPvb3x+xtRFO9z3nnnDciYZ86cWR1Su2vXrgF5PICBJoKgS8QGye/8zu+U733ve9XGdexx6L+HITZeI2QiPr773e9W5+h88pOf7Ht7/PtP/uRPypo1a6qY+Kmf+qm+iIp/x6Fx8T7/9V//Va688sryIz/yI30f+7GPfazamxSHvMV5Q3/6p39axU+Iw9fi49797neXu+++u0yePPmEh+adTOzBiD0uETfHbmDHxnpETS0Oy4s9IHGoTv8N8/7vH+dJ1Yez9f+4WmyQxmE+x6o3VPsfYhjiPI/YG/Qbv/Ebb/i1xKFu8TOJS4RibOzWS2W3QuwJiBW7ThYi8XOsD2mrN6LjfSP86riJ6/rwrNhDFp+v3vMQt489ByjE71Q8drvOTelmJ/uZxPe0/t2OJwGOPc8q/q+3YuXCM3Ho0KHqyQ2AwcgS2dBFInLicjKx4RSXk/nN3/zN6nIiX/va16rLicShbfWyvSfyxS9+sbqcroiX2Fg8VmwE1ocChTh5v94DEhvl/e+v9yLVh3XF2+oTz+u9HeE///M/q43Q/rET7xfnYMTX2H9jtP+y0n/+539+Sl9LnCMU5wfFstmxBygOh2uVGEuMMy61iJf6a42g7P99iXgL/b+P8b2OsKs3yPsfkhi34/fn2AUS4hC42CPW/305NSf7mcTvcX2+W+i/bHn/4IyPj/eJ38343d2zZ89xj7F+/fpy3XXXVT+3OP+vFWIRltWrV7fkcwF0op5YIvtEz/wBpy4WEoiNmI/82I+d8eeKw5Ue+va3WzAqQmxQRmAN9MnlEUKt2gMEbyQW3ohDMEeMGNGSz/ed73yn2psZ1ydzbTO8WnF45OfuuKMKvXrFSYCBYE8QwFkggBhIEUH1Eu0AvDERBAxq7T6vAgDoPBZGAAAAUhFBAABAKg6Hgw4Ur9EBAMDZIYKgA23cuLHdQwB4Xdddf327hwBw2hwOBwAApCKCAACAVEQQAACQiggCAABSEUEAAEAqIggAAEhFBAEAAKmIIAAAIBURBAAApCKCAACAVEQQAACQiggCAABSEUEAAEAqIggAAEhFBAEAAKmIIAAAIBURBAAApCKCAACAVEQQAACQiggCAABSEUEAAEAqIggAAEhFBAEAAKmIIAAAIBURBAAApCKCAACAVEQQAACQiggCAABSEUEAAEAqIggAAEhFBAEAAKmIIAAAIBURBAAApCKCAACAVEQQAACQiggCAABSEUEAAEAqIggAAEhFBAEAAKmIIAAAIBURBAAApCKCAACAVEQQAACQiggCAABSEUEAAEAqIggAAEhFBAEAAKmIIAAAIBURBAAApCKCAACAVEQQAACQiggCAABSEUEAAEAqIggAAEhFBAEAAKmIIAAAIBURBAAApCKCAACAVEQQAACQiggCAABSEUEAAEAqIggAAEhFBAEAAKmIIAAAIBURBAAApCKCAACAVEQQAACQiggCAABSEUEAAEAqIggAAEhFBAEAAKmIIAAAIBURBAAApCKCAACAVEQQAACQiggCAABSEUEAAEAqIggAAEhFBAEAAKmIIAAAIBURBAAApCKCAACAVEQQAACQiggCAABSEUEAAEAqIggAAEhFBAEAAKmIIAAAIBURBAAApCKCAACAVEQQAACQiggCAABSEUEAAEAqIggAAEhFBAEAAKmIIAAAIBURBAAApCKCAACAVEQQAACQiggCAABSEUEAAEAqIggAAEhFBAEAAKmIIAAAIBURBAAApCKCAACAVEQQAACQiggCAABSEUEAAEAqIggAAEhFBAEAAKmIIAAAIBURBAAApCKCAACAVEQQAACQiggCAABSEUEAAEAqIggAAEhFBAEAAKmIIAAAIBURBAAApCKCAACAVEQQAACQiggCAABSEUEAAEAqIggAAEhFBAEAAKmIIAAAIBURBAAApCKCAACAVEQQAACQiggCAABSEUEAAEAqIggAAEhFBAEAAKmIIAAAIBURBAAApCKCAACAVEQQAACQiggCAABSEUEAAEAqIggAAEhFBAEAAKmIIAAAIBURBAAApCKCAACAVEQQAACQiggCAABSEUEAAEAqIggAAEhFBAEAAKmIIAAAIBURBAAApCKCAACAVEQQAACQiggCAABSEUEAAEAqIggAAEhFBAEAAKmIIAAAIBURBAAApCKCAACAVEQQAACQiggCAABSEUEAAEAqIggAAEhFBAEAAKmIIAAAIBURBAAApCKCAACAVEQQAACQiggCAABSEUEAAEAqIggAAEhFBAEAAKmIIAAAIBURBAAApCKCAACAVEQQAACQiggCAABSEUEAAEAqIggAAEhFBAEAAKmIIAAAIBURBAAApCKCAACAVEQQAACQiggCAABSEUEAAEAqIggAAEhFBAEAAKmIIAAAIBURBAAApCKCAACAVEQQAACQiggCAABSEUEAAEAqIggAAEhFBAEAAKmIIAAAIBURBAAApCKCAACAVEQQAACQiggCAABSEUEAAEAqIggAAEhFBAEAAKmIIAAAIBURBAAApCKCAACAVEQQAACQiggCAABSEUEAAEAqIggAAEhFBAEAAKmIIAAAIBURBAAApCKCAACAVEQQAACQiggCAABSEUEAAEAqIggAAEhFBAEAAKmIIAAAIBURBAAApCKCAACAVEQQAACQiggCAABSEUEAAEAqIggAAEhFBAEAAKmIIAAAIBURBAAApCKCAACAVEQQAACQiggCAABSEUEAAEAqIggAAEhFBAEAAKmIIAAAIBURBAAApCKCAACAVEQQAACQiggCAABSEUEAAEAqIggAAEhFBAEAAKmIIAAAIBURBAAApCKCAACAVEQQAACQiggCAABSEUEAAEAqIggAAEhFBAEAAKmIIAAAIBURBAAApCKCAACAVEQQAACQiggCAABSEUEAAEAqIggAAEhFBAEAAKmIIAAAIBURBAAApCKCAACAVEQQAACQiggCAABSEUEAAEAqIggAAEhFBAEAAKmIIAAAIBURBAAApCKCAACAVEQQAACQiggCAABSEUEAAEAqIggAAEhFBAEAAKmIIAAAIBURBAAApCKCAACAVEQQAACQiggCAABSEUEAAEAqIggAAEhFBAEAAKmIIAAAIBURBAAApCKCAACAVEQQAACQiggCAABSEUEAAEAqIggAAEhFBAEAAKmIIAAAIBURBAAApCKCAACAVEQQAACQiggCAABSEUEAAEAqIggAAEhFBAEAAKmIIAAAIBURBAAApCKCAACAVEQQAACQiggCAABSEUEAAEAqIggAAEhFBAEAAKmIIAAAIBURBAAApCKCAACAVEQQAACQiggCAABSEUEAAEAqIggAAEhFBAEAAKmIIAAAIBURBAAApCKCAACAVEQQAACQiggCAABSEUEAAEAqIggAAEhFBAEAAKmIIAAAIBURBAAApCKCAACAVEQQAACQiggCAABSEUEAAEAqIggAAEhFBAEAAKmIIAAAIBURBAAApCKCAACAVEQQAACQiggCAABSEUEAAEAqIggAAEhFBAEAAKmIIAAAIBURBAAApCKCAACAVEQQAACQiggCAABSEUEAAEAqIggAAEhFBAEAAKmIIAAAIBURBAAApCKCAACAVEQQAACQiggCAABSEUEAAEAqIggAAEhFBAEAAKmIIAAAIBURBAAApCKCAACAVEQQAACQiggCAABSEUEAAEAqIggAAEhFBAEAAKmIIAAAIBURBAAApCKCAACAVEQQAACQiggCAABSEUEAAEAqIggAAEhFBAEAAKmIIAAAIBURBAAApCKCAACAVEQQAACQiggCAABSEUEAAEAqIggAAEhFBAEAAKmIIAAAIBURBAAApCKCAACAVEQQAACQiggCAABSEUEAAEAqIggAAEhFBAEAAKmIIAAAIBURBAAApCKCAACAVEQQAACQiggCAABSEUEAAEAqIggAAEhFBAEAAKmIIAAAIBURBAAApCKCAACAVEQQAACQiggCAABSEUEAAEAqIggAAEhFBAEAAKmIIAAAIBURBAAApCKCAACAVEQQAACQiggCAABSEUEAAEAqIggAAEhFBAEAAKmIIAAAIBURBAAApCKCAACAVEQQAACQiggCAABSEUEAAEAqIggAAEhFBAEAAKmIIAAAIBURBAAApCKCAACAVEQQAACQiggCAABSEUEAAEAqIggAAEhFBAEAAKmIIAAAIBURBAAApCKCAACAVEQQAACQiggCAABSEUEAAEAqIggAAEhFBAEAAKmIIAAAIBURBAAApCKCAACAVEQQAACQiggCAABSEUEAAEAqIggAAEhFBAEAAKmIIAAAIBURBAAApCKCAACAVEQQAACQiggCAABSEUEAAEAqIggAAEhFBAEAAKmIIAAAIBURBAAApCKCAACAVEQQAACQiggCAABSEUEAAEAqIggAAEhFBAEAAKmIIAAAIBURBAAApCKCAACAVEQQAACQiggCAABSEUEAAEAqIggAAEhFBAEAAKmIIAAAIBURBAAApCKCAACAVEQQAACQiggCAABSEUEAAEAqIggAAEhFBAEAAKmIIAAAIBURBAAApCKCAACAVEQQAACQiggCAABSEUEAAEAqIggAAEhFBAEAAKmIIAAAIBURBAAApCKCAACAVEQQAACQiggCAABSEUEAAEAqIggAAEhFBAEAAKmIIAAAIBURBAAApCKCAACAVEQQAACQiggCAABSEUEAAEAqIggAAEhFBAEAAKmIIAAAIBURBAAApCKCAACAVEQQAACQiggCAABSEUEAACuQAMkAAA+HSURBVEAqIggAAEhFBAEAAKmIIAAAIBURBAAApDK03QMAjnfd9de3ewgAAIOWCIIOs3z58nYPAQBgUHM4HAAAkIoIAgAAUhFBAABAKiIIAABIRQQBAACpiCAAACAVEQQAAKQiggAAgFREEAAAkIoIAgAAUhFBAABAKiIIAABIRQQBAACpiCAAACAVEQQAAKQiggAAgFSGtnsAALRe4+jRsnffvrJ3796yr3kdRo0aVUaPHl1GN697zvEcGAB5iSCAQeDokSNl85YtZcvmzWVL8/rgwYPl/PPPL+PHjy9jx46t3ifetnPnzvLSSy+V4cOHlwsvvLBcOGNGmdG8PmfIkDZ/BQAwcEQQQBd79tlny5Nr1pTNzcCZv2BBueLKK8vbFi8uPT09r/txjUajCqJnnnmm3Pc//1NmNGNo7uWXl2nTpg3QyAGgfUQQQBeKvTmrV60qR44cKdddf325+ZZbqvsPHz5cNjbD5uVm4FSHwjUve3sPh4vD4Eb1Hg43YeLEak/QokWLqsuePXvKtx98sDz55JNlQTOmYi8SAAxWIgigi8QenG898EB5/vnny9KbbioTmzFz9OjR8lQzXurD4U7m5RPcVx8Od+mcOeXW224rO3bsKMvuu69Mnjy5vPWGG95wjxIAdCMRBNAldu/eXZYvW1aumj+/3PC2t1X3rXniibJq1aq+xQ/erOocouZl5cqV1R6gy+fNK+97//vLxo0by53//d9lydKlfecUAcBgIYIAusDWrVurAPo/73xntfdnw4YNZdWjj1bn9bRCRNSD9eFwV19dZs+eXc4777y+EJo+fXpLHgcAOoE1UgE63NNPP10e+OY3y3vf974qgOJcoDhkrVUB1F98zvjc8RjxWPGY8dgxBgAYLEQQQAd78cUXy4rly6sYidf5+eb995fvfve7Z/1x4zHiseIx47FjDDEWABgMRBBAh9q/f38VH+//wAfKsGHDyv/ce29Zu3btgD1+PNa9zceMx44xxFhiTADQ7UQQQIda3oyOWAAhzs15+OGHq8UKBtqm5mPGY8cYYiwxJgDodiIIoAPFkteTJk0qU6ZMqRYr+N5jj7VtLPHYMYYYS4zpqaeeattYAKAVRBBAB4plr6+66qpqWex4XaB2izHEWGJMsSodAHQzEQTQYWJltvkLFlTn4sTtThFjiTHF2DppXADwZokggA5y8ODBai/QnEsvrVZjW7duXbuH1CfGEmOKscUYY6wA0I1EEEAH2bJlS/VipecMGVKFRqeJPUAxthhjjBUAupEIAuggWzZvLhdddFE5cOBAdbvTbG6OKcYWY+zE8QHAqRBBAB0k9q7EctSdHBgxtmqM9gQB0KVEEECHiKiYM2dO6enpKZs7ODBibDHGGKsQAqAbiSBogdggbDQa7R4GXW7nyy+XadOnV7c7fU9QiLHGmOFMxNwZcyjAQBJB0AKxbHA4dOhQm0dCN9u7b18ZNWpUterakSNH2j2ck4qxxRhjrDFmOF31nFnPoQADRQRBC4ggWmHf3r1lxIgRZW/zutPt7R3rvi4YK51LBAHtIoKgBeo/4IdFEGcgwmL48OFdERb7esfaDcFG5zosgoA2EUHQAkOHDq2uDx0+3OaR0M327dtXhgwZ0hWHmO3tHeu+LhgrnaueM+s5FGCgiCBogTFjxlTXe/bsafNI6GZxjk2cbzO6ed3pRveOdVQXjJXOVc+Z9RwKMFBEELTA2HHjquvdu3e3eSR0s9GjR//vggPN6043qneso7tgrHSues4cO3Zsm0cCZCOCoAXG1xG0a1ebR0I3i7A4cOBAV4TF6N6xdkOw0bnqOXNc7xwKMFBEELTAuPHjq+td9gRxBuIQszjHJhYciPNtOlWMrVrAoTnWbjh0j85V7wkaP2FCm0cCZCOCoAXG90bQyzt2tHkkdLPYEHx269bq9oUzZrR5NCdXjy3GauOVM7Gjd84cb08QMMBEELTAqJEjy6RJk6oTxbdt29bu4dClLrzwwrJ27drSaDTKjObtThVjizHGWC/s4HHS2WKujDkz5k4LbAADTQRBi0yZMqW6fl4EcQYiKmLFrE7fE1SNUQBxBuq5sp47AQaSCIIWmT59enVtTxBnIgJj48aNZcSIEWVGB4ZQjC/GFmPs5FCj89Vz5dSpU9s8EiAjEQQtMm3atOo6/rDH0sFwOmLvyqpHHy1Hjxwp8xcsaPdwjrOgOaYYW4zRniBOV8yRdQT5PQLaQQRBiwwbNqzMmDmzur1hw4Y2j4ZuFauuRWisXbeuvOUtbymXXnppu4fUJ8YSY4qxxRhjrHA66jky9nbG3Akw0EQQtFC9wfqMCOIMxB6g1atWlUOHDnXU3qAYS4wpxtZJ46L71HNkJ0U+kIsIgha69JJLqmc14zCPXV44lTOw4Oqry2OPPVbGjh1b3nrDDe0eTjWGGEuMaYEA4gzE3BhzZMyVIghoFxEELdTT01Muvvji6vb69evbPBq62WWXXVa2b99ebSzOnTu3XHnVVW0bSzx2jCHGEmO6rHkbTlc9N158ySXVnAnQDiIIWmxu7wbiE48/Xh06BKdryZIl5YFvfrNajvqaa64pMy+6aMDHcFHzMeOxYwwxlhgTnK6YE2NuDHOboQ/QLiIIWixe8yI2Vg8fPtz3xx5Ox8iRI8uNzej40he/WG083nzzzWXOnDkD9vjxWG9vPmY8dowhxhJjgtMVc2LMjTNnzvT6QEBbiSA4C+b3Hrr0ePMP/tGjR9s8GrpZrMYW8fHl//iPsm/fvvK2xYvL933f9531x43HiMeKx4zHjjHEWOB0xVz4eO8TQ/Pnz2/zaIDsRBCcBfHCqfHaFwcOHKhW0oIzEeeZ3fC2t1UxsmPHjmpltqU33VTGjx/f8seKzxmfOx4jHiseMx67PtcNTlfMhTEnxvxYv7g0QLsMbfcAYLC6+uqry5YtW8rKlSvLRbNmnZUNVvKIjcbbf+AHyvJly8pV8+eX2bNnV5c1TzxRVjU3LmOPzZkYNWpUterb5fPmVf/euHFjeWz16uoxY1U4OBM7d+6s5sKwcOHCNo8GoJQhH/vYx35vZu8LPAKtExuOe/furVbTig3U2GCFMzFixIjqPJ04r+I7Dz9cLpg8uXqB3nlXXFHOHT06licsu3fvflOf88IZM8qVV175v4e7XXBBtffnrq99rTSOHi0333KLc4BoiQceeKBaGnteM7KvauNKhwA1e4LgLLr22mvL008/XTZt3Fi9QroQ4kzFksJxeNpLL71UHn300XL0yJFy3fXXV8tWxyVOOo89kC83Y2ZvM773NUN8b+9eotGjRpVRzVga3bxMGD++CqChQ//3z0Cs/vbtBx8sQ4YMKUuWLi3nn39+O79MBpGY+2IOjKCOORGgE4ggOIvqP/orVqwo37z//jJu3LgyceLEdg+LQSAiJVaLe/bZZ8vDDz1UNm/eXJ3HM2vWrGpZ67h+PY1GozpE6ZlnnqnO1ZjRDKLYozRt2rSB+QJIIfYsxtwXYql1exaBTtHT3DhrLF68uN3jgEFt2bJlZc2aNWXChAnl+2+/vXqldGil2CO0ecuWsqUZQ7En6ODBg1Uoxblo9Tk9cahchE/sRRo+fHi1eEfsDZrRvD5nyJA2fwUMNrG0+lfvvLO8/PLL5fLLLy9Lly5t95AA+tgTBAMg/vjH8fDPPfdcWb58ebnlllvaPSQGmYiY2AN0Ue8LqsY5PXEYXJyXVi+aMHnKlOpQuDgsrucci4NydsVcFwE0depUAQR0HH8FYYDEoUvnnntu2bxpU3nooYfaPRwGuYic+H2L1/aJxW/iErfjPgHE2RZzXMx18fsWcx9Ap/GXEAbImDFj+vYAPf6971VLGwMMNjG3xRwXYs6LuQ+g04ggGEBxWMhNN91U3X7wwQfL1i1b2jwigNaJOS3mthBzXcx5AJ1IBMEAmzt3blm0aFF1+5577hFCwKAQc1nMaSHmuJjrADqVCII2iGWzL7nkkmqZ4q9//esOjQO6WsxhMZfFnBZzm9cDAjqdCII2ufXWW/v2CMXhIxZLALpRzF31IXAxp8XcBtDpLJENbRTPlsZruNx3333VicR79uwpS5Ys8TpCQMeL1wGKZbBjFbgQ5wA5BA7oFvYEQZvFRsO73/3uagWl2JiIFxeMV1kH6FQxR8VcVS+DHXOYAAK6iQiCDhArKL3nPe+pruPFBWPjYsOGDe0eFsBxYm6KOap+IdT3vve9VoEDuk7PihUrGosXL273OIBey5YtK2vWrKluz7zoouoY+/Hjx7d5VEB2O3fuLI888kjZtHFj9e/LL7+8LF26tM2jAjg9zgmCDhMbFZMmTapONo6NjbgsXLiwzF+woJxzjp23wMA6evRoWb1qVVm5cmX175EjR5ZrrrmmXHHFFW0eGcDpsycIOtT+/fvLww8/XB5//PHq3yNGjKg2OuY1LxZOAM62WPjgieb8E3PQgQMHqvvmzZtXLegSIQTQzUQQdLitW7dWz8DGdRg6dGgVQvFaHOPGjWvz6IDBZteuXWX9+vVVAB0+fLi6b/r06dUe6bgGGAxEEHSJiKDVq1eXTb3L0YYpU6aUWbNnl9nNy/Dhw9s4OqCbHTx4sFrw4JnmZdu2bX33z5w5s8yfP1/8AIOOCIIuExsoTz71VHl6/frqcJVaBFFcJvdeA7yemEueb1629V5qcbjtxRdfXC15bS4BBisRBF2q0WiUdevWlXXNGNrcb+9QGDJkSJk4cWL1Qqxjx42rrs8777wybOjQMrS5gTOs9wIMTvEESVwOx/Xhw9ULMe/evbvs3rWr7Gpev7xjRzly5MhrPmbGjBnlkksvLXOal56enjaNHGBgWB0OulRspMyZM6e6xMbOli1bynPPPVc9o7t9+/by4osvVpc3+hzA4BJPkJyKWIUy9vRMnTatXDh9uidGgFREEAwCsfEyu/fcoBAry728c2f1uh67mpd4BvjVV1/te3a4vpzqxhLQPeLJjWH99vjG5dxzz632CMdiKhMmTCjjxo8vo6zwBiQmgmAQiuVrp8YzvI7nBwA4jldeBAAAUhFBAABAKiIIAABIRQQBAACpiCAAACAVEQQAAKQiggAAgFREEAAAkIoIAgAAUhFBAABAKiIIAABIRQQBAACpiCAAACAVEQQAAKQiggAAgFREEAAAkIoIAgAAUhFBAABAKiIIAABIRQQBAACpiCAAACAVEQQAAKQiggAAgFREEAAAkIoIAgAAUhFBAABAKiIIAABIRQQBAACpiCAAACAVEQQAAKQiggAAgFREEAAAkIoIAgAAUhFBAABAKiIIAABI5f8DhXTuV/svYQIAAAAASUVORK5CYII=;fillColor=#4F4F4F;snapToPoint=0;fillOpacity=100;" parent="1" vertex="1">
          <mxGeometry x="-470" y="-250" width="890" height="808.8" as="geometry"/>
        </mxCell>
        <mxCell id="X_jthvCfrlDwOe1ctVov-3" value="&lt;font face=&quot;Times New Roman&quot; style=&quot;font-size: 18px&quot;&gt;&lt;b&gt;App build using &lt;br&gt;react native components and Platform UI Components&lt;/b&gt;&lt;/font&gt;" style="rounded=0;whiteSpace=wrap;html=1;fillColor=#6d8764;strokeColor=#3A5431;fontColor=#ffffff;" parent="1" vertex="1">
          <mxGeometry x="-227" y="-140" width="320" height="160" as="geometry"/>
        </mxCell>
        <mxCell id="X_jthvCfrlDwOe1ctVov-5" value="&lt;font face=&quot;Times New Roman&quot; style=&quot;font-size: 24px&quot;&gt;&lt;b&gt;React Native Plugins&lt;/b&gt;&lt;/font&gt;" style="rounded=0;whiteSpace=wrap;html=1;fillColor=#ffcc99;strokeColor=#36393d;" parent="1" vertex="1">
          <mxGeometry x="-227" y="20" width="320" height="130" as="geometry"/>
        </mxCell>
        <mxCell id="X_jthvCfrlDwOe1ctVov-6" value="&lt;font face=&quot;Times New Roman&quot; style=&quot;font-size: 24px&quot;&gt;&lt;b&gt;iOS/Android SDKs&lt;/b&gt;&lt;/font&gt;" style="rounded=0;whiteSpace=wrap;html=1;fillColor=#b1ddf0;strokeColor=#10739e;" parent="1" vertex="1">
          <mxGeometry x="-227" y="150" width="320" height="100" as="geometry"/>
        </mxCell>
        <mxCell id="X_jthvCfrlDwOe1ctVov-7" value="&lt;font style=&quot;font-size: 24px&quot; face=&quot;Times New Roman&quot;&gt;&lt;b&gt;Mobile Operating System&lt;/b&gt;&lt;/font&gt;" style="rounded=0;whiteSpace=wrap;html=1;fillColor=#647687;strokeColor=#314354;fontColor=#ffffff;" parent="1" vertex="1">
          <mxGeometry x="-227" y="250" width="320" height="180" as="geometry"/>
        </mxCell>
        <mxCell id="X_jthvCfrlDwOe1ctVov-8" value="&lt;font face=&quot;Times New Roman&quot; style=&quot;font-size: 14px&quot;&gt;&lt;b&gt;WebView&lt;/b&gt;&lt;/font&gt;" style="rounded=0;whiteSpace=wrap;html=1;fillColor=#a0522d;strokeColor=#6D1F00;fontColor=#ffffff;" parent="1" vertex="1">
          <mxGeometry x="-127" y="-25" width="120" height="40" as="geometry"/>
        </mxCell>
        <mxCell id="X_jthvCfrlDwOe1ctVov-12" value="&lt;h1&gt;Mobile App&lt;/h1&gt;&lt;p&gt;&lt;font style=&quot;font-size: 14px&quot;&gt;UI and interaction, built using react native custom components&lt;/font&gt;&lt;/p&gt;&lt;p&gt;&lt;font size=&quot;3&quot;&gt;Allows re-use of existing core components. including UI &amp;amp; services intergration&lt;/font&gt;&lt;/p&gt;" style="text;html=1;strokeColor=none;fillColor=none;spacing=5;spacingTop=-20;whiteSpace=wrap;overflow=hidden;rounded=0;" parent="1" vertex="1">
          <mxGeometry x="140" y="-135" width="350" height="150" as="geometry"/>
        </mxCell>
        <mxCell id="X_jthvCfrlDwOe1ctVov-13" value="&lt;h1&gt;&lt;font style=&quot;font-size: 18px&quot;&gt;WEB VIEW&lt;/font&gt;&lt;/h1&gt;&lt;p&gt;&lt;b style=&quot;color: rgb(34 , 34 , 34) ; font-family: &amp;#34;arial&amp;#34; , sans-serif ; font-size: 16px ; background-color: rgb(255 , 255 , 255)&quot;&gt;WebView&lt;/b&gt;&lt;span style=&quot;color: rgb(34 , 34 , 34) ; font-family: &amp;#34;arial&amp;#34; , sans-serif ; font-size: 16px ; background-color: rgb(255 , 255 , 255)&quot;&gt;&amp;nbsp;is the channel that connects&amp;nbsp;&lt;/span&gt;&lt;b style=&quot;color: rgb(34 , 34 , 34) ; font-family: &amp;#34;arial&amp;#34; , sans-serif ; font-size: 16px ; background-color: rgb(255 , 255 , 255)&quot;&gt;React Native&lt;/b&gt;&lt;span style=&quot;color: rgb(34 , 34 , 34) ; font-family: &amp;#34;arial&amp;#34; , sans-serif ; font-size: 16px ; background-color: rgb(255 , 255 , 255)&quot;&gt;&amp;nbsp;with&amp;nbsp;&lt;/span&gt;&lt;b style=&quot;color: rgb(34 , 34 , 34) ; font-family: &amp;#34;arial&amp;#34; , sans-serif ; font-size: 16px ; background-color: rgb(255 , 255 , 255)&quot;&gt;Web&lt;/b&gt;&lt;span style=&quot;color: rgb(34 , 34 , 34) ; font-family: &amp;#34;arial&amp;#34; , sans-serif ; font-size: 16px ; background-color: rgb(255 , 255 , 255)&quot;&gt;&amp;nbsp;platforms, giving us many great options to create a sort of connections to our app that is running on the&amp;nbsp;&lt;/span&gt;&lt;b style=&quot;color: rgb(34 , 34 , 34) ; font-family: &amp;#34;arial&amp;#34; , sans-serif ; font-size: 16px ; background-color: rgb(255 , 255 , 255)&quot;&gt;Web&lt;/b&gt;&lt;span style=&quot;color: rgb(34 , 34 , 34) ; font-family: &amp;#34;arial&amp;#34; , sans-serif ; font-size: 16px ; background-color: rgb(255 , 255 , 255)&quot;&gt;!&lt;/span&gt;&lt;br&gt;&lt;/p&gt;" style="text;html=1;strokeColor=none;fillColor=none;spacing=5;spacingTop=-20;whiteSpace=wrap;overflow=hidden;rounded=0;" parent="1" vertex="1">
          <mxGeometry x="145" y="15" width="340" height="140" as="geometry"/>
        </mxCell>
        <mxCell id="X_jthvCfrlDwOe1ctVov-14" value="&lt;h1&gt;SDKs&lt;/h1&gt;&lt;p&gt;&lt;span style=&quot;color: rgb(34 , 34 , 34) ; font-family: &amp;#34;roboto&amp;#34; , &amp;#34;arial&amp;#34; , sans-serif ; font-size: 14px ; background-color: rgb(255 , 255 , 255)&quot;&gt;The kit allows for the development of mobile apps on Apple&#39;s iOS operating system and Android operating system&lt;/span&gt;&lt;br&gt;&lt;/p&gt;" style="text;html=1;strokeColor=none;fillColor=none;spacing=5;spacingTop=-20;whiteSpace=wrap;overflow=hidden;rounded=0;" parent="1" vertex="1">
          <mxGeometry x="145" y="250" width="340" height="110" as="geometry"/>
        </mxCell>
        <mxCell id="X_jthvCfrlDwOe1ctVov-15" value="" style="shape=image;verticalLabelPosition=bottom;labelBackgroundColor=#ffffff;verticalAlign=top;aspect=fixed;imageAspect=0;image=data:image/png,iVBORw0KGgoAAAANSUhEUgAAAOEAAADhCAMAAAAJbSJIAAAAdVBMVEX///8AAAC/v7+zs7NZWVmTk5Py8vL7+/uZmZn19fWoqKjg4OCtra2EhISJiYmioqJPT0/Kysrq6uo8PDza2tppaWkoKChCQkJubm7d3d11dXU4ODi5ubkYGBgxMTEhISFhYWFJSUl9fX3Q0NBcXFwODg4VFRXOQfMPAAAEjUlEQVR4nO2dW2OiMBCFCaJYVLxbRW299v//xC3V7iIEcesMJ8ue79mHOU1IMjMnqecRQgghhBBCCCGEEEIIIYQQQgghhBBCCBFn1h8EPjoIPfy5Semi41CiE5srbXQoKnQSYxqtsG0yDNHRyDPbZgWaFjoecbrmljE6IGmCnEAzQUckS/iWF2jQIckSvhcEBuiYZCmOYMOW0sI3+EkPHZQk+VU0ZYEOSpKVRWCzJunWpjBERyWIbY6aAzoqQV5sAk0HHZYgh/9zCJv0FbZtAhuVVtgEjtBBSTJu+hz1EovAGTooUSwCN+iYROkVBUbomGTZFAT20SEJU9grGlecWd7qWzSsNvPJ6EZgjA5HgdeMvlHzBtDLKgyO6Fh0uM7SdbeR45cSLZN4OH5Bh0EqmRz9Vr/lzx4bq2N0OE0Xi2mwjKOx+7l+6A+mmfVy2bof8qqbXV1TzonvcqqxsZR6X6Oyoey1z8Wfp+wcPen86Vc/EnHYX5f9PMXB83g4uBew6d7O1pktT7zFtcpGvzLi0eb7+5oMi50nC2uX9sxOfr0oEdn1x5vY0ncqwZ1Kv/9wzH/JCa3sirVAKMObEzvHsjrQn/PhwAnvpCnQmC18FHe6Ao2ZggVa+yyyLKECq7dBAZDlOEv5UwFkydjarxZmj1xN7x9FZRgA9dUyR7El8ccOo0+B9X5bW4FNEmjzpgkDToP1hxBt0BhVh/gc6OPaRFsg3ESkmBRegLdOP5QFrtECrQ5KSeAGDavBUBC8iWivrBDfXVQWiPdEH5UV4iulkbJCfLm7uu3wFG9ofZ43rY7yGRywoegKRGdNXpmVWQ78Z6hdv0DrU98szmh9iu20C+jM8JOWrkL8oVR7w3fgsmXzFQ51Fe7R+tTHEJ9ZqB+80frU11KDb94r74f4Io16Aox3fGlX2hK0QK+jrNCBpUZbIf75Ae0GPv69IduzD6KgBep7FOB1DHWnEDxF1N4Q8df2QnWF8NO3vhsKXdhXLnqngEuKNZgSwfO0DsfXDiuxBoXg9sW8DonQBz+10/wLyFFUT6AuIE3e+sa9L9Y4a5S23+Q3MJt3PS72lAA1jA9dsZMhxpQXa5umKZCpqu+/zIAp3OzrEwiynxSf01EDlUrVpxC1mpZeT5dmBxJY31qDK9oo3x/9ZgsT6M3qUYg0tddw9clgC+D6dVOD/scXdQwiVGAdg4j+3yXq15/gbSj1NBF+O0j7Rv47Wp96kwZ/tUS5rrhDq/tir6gQ745KUSyd4peZC2rz1AGz8BUta4YbczRFaT116ZVolavrc7SqGzQMNmhNOe6+Efgj8CbTW8S3DLQXo4hwHuXKY3RZRO3tDhy4LUiuNugnI0qQcy/gHbQlSD1Pt0ILKefeG4rnJBr3OmH4Mplt4rsVLGdHMKXsyZPFMGdTC21vDl9+6ug3+I31/JZYd++O9c+BflmomjA/U8/D8ucrW3nPytS1k4yVXnZNTSr6Rqs4Y1Wdu1CVeYhwMwimr8EhemhEJv4wPhzi6J+RRwghhBBCCCGEEEIIIYQQQgghhBBCCCEgfgG4XkJCPhYVSQAAAABJRU5ErkJggg==;" parent="1" vertex="1">
          <mxGeometry x="23" y="380" width="41" height="41" as="geometry"/>
        </mxCell>
        <mxCell id="X_jthvCfrlDwOe1ctVov-16" value="" style="shape=image;verticalLabelPosition=bottom;labelBackgroundColor=#ffffff;verticalAlign=top;aspect=fixed;imageAspect=0;image=data:image/png,iVBORw0KGgoAAAANSUhEUgAAAOEAAADhCAMAAAAJbSJIAAAAaVBMVEX///+qwUijvDH1+OuowEKnvz6+z3zQ3KH///2kvTbw9OGtw02vxVOmvjukvTX7/PaxxlrJ15O4y2vr8Nfj6srW4a/b5Lj7/PfG1Yzh6cW9z3je57/C0oTS3qa5zG/09+m0yGHs8dvM2ZrPrl3TAAAHG0lEQVR4nO2d2ZKiMBRABRMkQkBxQ6UV/f+PHBZRIImAZKupe16bTt1jNsi6WEjCT9EllpTWbhMcJCUlkS1xcC4nqdh1HHcvJy2JJMhxyFlKUlmRFP6TkpRM/qjjOIGMlNZRkZL7kJGUVPwiLIfKqD5laUCehIRkcySl4ml2OvsqC5cSIpJOWESGt7OT2chJRgX7MhPJfWYqVVHAsvodyVQV6DIzEVyWdfsa0pq1W9ag3aw0VqWhIykg+ZQdGcrnpBCXfQ65SopHPsuqJs7p9qvfaCMtIPk8Z5YxGeVcLSfE7/bjx3WV3TYOJpEbURzkl+xwXrN9501GW6WWY1mPcCf09cELKKEYlfYNCGFK8Ca9dnr2urOf298optvtn86ZE+G2WhdE3c3zUyirzj41Evd4qmyIqmw4XW+Eiu0aMMFpLVm/91na2X9o3psfGR6h98pKEqwKMWRzZ/+hag7JXx6N1XvlpJul5X8g0/GPwCsDxZP06ows/8/izv5D9VryK7np6EewvE0rnr2M3PqmBYZ4Tqx/fTCyu5w+wjlFtCaSNiipgJU7288pmxz7RhJr4mR+Bta4dg5i7L68nU2F5vNHtKRzlFJCGxBamxbqI6cKtiCWVcaMSBYsKqNV3cZFVhvTUbRo/kmJoE2KmRpBewrqVn4dfCta0dwcImWCRYtqQaexZ7sJ9GPXjzj/iIy/pN6ZIkpCL81/KLiI3tIL6n86zxtCl4Af9AOl1ZD3ejM1H0lW5tbp2S/z1PDYm9f/zWlTcTbTBN8jkId+9pttUK/9Xxy/u7D1tIIavtNkxghMTiYuGYvoE00+RbC19OLa711RYsKt5sJUttZgYDalJtLPhBWb+eRowK1iz/aE5PPXaYafyvZgizc29LXocyJt9dDhBEEHfVrMAzvWijMTfq81Qv1I37Fcp7U0tJmEYvufgsjIq03MVSCvxvQx8V0ObV4lkTvcim4mDLf8kXviFb93vJr8UoOCq19U7Q0/VRPzwmxP0YRKCHV/mLdwiv9yhYka6DEEWaiKSHsmxrJHngbQXxP/9Gahgel9XpuuFKR5HHyvbuRCqKh33s2TN4I/FklLrEfia25nSvSuJGK+cHTg6iymBgpp5wtLOb4JwdZbvXp2+lvSCn2GK93dfY3Gb6jESCltDXOpxjdUSPX1FxMHCuWBtRmqnIv5hr5lfWYaGp3dhdx1F6PR+QG1cinWDaFap0vvh5VurhYuIgIAAAAWi/j8zLzseWZ3He9STz8pO+y9fEX42zz4PiEEo2oLVtLra1MXmcBNmQipIMIRLG+tRfcoStr5qHQV1Dei9nT3MulEeJu4v33f27OE2q9MusU+BCMjHCHIvlp/FtHpnpRpB/GucOdvEQ7D/QB8j5IsTRXSIoamKK55v/KEswBC7kxzs6jHBkPuMojxW6SZhVc1zRS9BYYH/pg7GTtUJZo5C6wxHIhwCOHM2WuDgHnDoQiH2IpGQ1+TlOYNhyIcQrzkbmOJoXhlZz7KUCzgWmIo7pCjUYbi/7ff0J1r6Fth+GUGGgzBEAyVA4ZgCIZgqB4wBEMwBEP1gCEYgiEYqgcMwRAMwVA9YAiGYAiG6gFDMARDMFQPGIIhGIKhesAQDMEQDNUDhmAIhmCoHjAEQzAEQ/WoN1xYYTh7v4X49BlqiaH4PLxxpxAJL057HQRr3lB4EtfIU06FR5O+Dk43bzgU4RDCY6BeO4HNGw5FOIigEDSnFZs3HIpwkB2/rWpOnLbAcCDCYTJeOcfewhpD9l6NkgmH0/ucG0ZQ2BwfaoOhz9lQjzYTDjiNmQRQ8D7OwAbDRRwwEYaTTjjxb93t0iT5nLRlheHilPQivE09ovaI3kdrIIo7h4pYYVhEiFsRoh9u+fCPCalJDp2fxxbDhX94R3j88Yzh026/3+/6xdsaw4K4ilD2WXU2GaoBDMEQDMEQDMEQDMEQDMEQDMEQDMGwMjR4fqkeQ1NXlBQQTVc+GbntqQR5w8FJYYnNKCJ9tzsvPRoRlm9Xlc19mpCIejqvr47XHM7ioMM78/Re/HTAS31twf0WX+4QCtmnhVe1jj5KVj9g2AUMbQQMu4ChjYBhFzC0ETDsAoY2AoZdwNBGwLALGNoIGHYBQxsBwy5gaCNg2AUMbQQMu4Chjfz/hnfxMpScfXopniEdfZ+obsS7yBFv35xwMQC6aA99LMK7ITHvCtRcpIhX2iMfy1O0A9nl7c8V7lcmo7eCake4A5lbsYRrq6xtaBbCHcjkyn1asPKIjr3V1wTcy6SFdy3f+ZnI6VksYsXr5IS75P94T7sPrRFPxmN7OfcsfDplFd0fNoPqJesHHYkFC8V+2+Tyq6xVHKJ2A0LC7wc5HKN2n0EDy4toTZySegsywiQYLHPxlr6fdmxuRTvE520eOOHlb1TXXTydhMXTKzUd/T8UoLMKJgHLaAAAAABJRU5ErkJggg==;" parent="1" vertex="1">
          <mxGeometry x="-27" y="380" width="41" height="41" as="geometry"/>
        </mxCell>
        <mxCell id="f4D1XcEkkAxdg2c3wE10-1" value="&lt;h1&gt;&lt;font face=&quot;Times New Roman&quot; style=&quot;font-size: 24px&quot;&gt;React Native Plugins&lt;/font&gt;&lt;/h1&gt;&lt;p&gt;Plugins provide native driven managements APIs for building best UI interaction experiences.&amp;nbsp;&lt;/p&gt;" style="text;html=1;strokeColor=none;fillColor=none;spacing=5;spacingTop=-20;whiteSpace=wrap;overflow=hidden;rounded=0;" vertex="1" parent="1">
          <mxGeometry x="148" y="149" width="330" height="91" as="geometry"/>
        </mxCell>
      </root>
    </mxGraphModel>
  </diagram>
</mxfile>
